<svg xmlns="http://www.w3.org/2000/svg" viewBox="0 0 1024 1024">
<defs>
  <linearGradient id="terra" x1="0" y1="0" x2="0.9" y2="1">
    <stop offset="0" stop-color="#b96a45"/><stop offset="1" stop-color="#a55a37"/>
  </linearGradient>
  <linearGradient id="paper" x1="0" y1="0" x2="1" y2="1">
    <stop offset="0" stop-color="#faf8f3"/><stop offset="1" stop-color="#f3e2d2"/>
  </linearGradient>
  <filter id="shadow" x="-20%" y="-20%" width="140%" height="150%">
    <feDropShadow dx="0" dy="10" stdDeviation="12" flood-opacity=".14"/>
  </filter>
</defs>

<!-- Transparent bakgrund → splash.backgroundColor (#eed7c5) syns. Motiv centrerat. -->
<g transform="translate(512,512) scale(0.86) translate(-548,-569)">
  <g filter="url(#shadow)">
    <path d="M315 180h385l88 88v430H315c-43 0-78-35-78-78V258c0-43 35-78 78-78z" fill="url(#paper)"/>
    <path d="M700 180v78c0 25 20 45 45 45h43" fill="#4e7a5e"/>
    <path d="M700 180l88 88" stroke="#4e7a5e" stroke-width="2" opacity=".25"/>
  </g>
  <g fill="none" stroke="#4e7a5e" stroke-width="22" stroke-linecap="round" stroke-linejoin="round">
    <path d="M330 335l28 28 55-62"/><path d="M330 475l28 28 55-62"/><path d="M330 615l28 28 55-62"/>
  </g>
  <g stroke="#4e7a5e" stroke-width="18" stroke-linecap="round">
    <path d="M455 340h205"/><path d="M455 480h205"/><path d="M455 620h205"/>
  </g>
  <g fill="#4e7a5e">
    <path d="M778 650c-5-85 18-157 75-205 15 76-4 142-75 205z"/>
    <path d="M795 700c38-78 94-119 166-126-28 68-83 110-166 126z"/>
    <path d="M778 745c18-47 54-72 105-73-12 43-47 68-105 73z"/>
  </g>
  <g fill="none" stroke="#4e7a5e" stroke-width="10" stroke-linecap="round">
    <path d="M770 790c28-88 57-166 87-236"/><path d="M810 680c48-45 91-75 139-99"/>
  </g>
  <g filter="url(#shadow)">
    <path d="M165 600h694l-70 270c-14 53-60 89-115 89H350c-55 0-101-36-115-89z" fill="url(#terra)"/>
    <rect x="135" y="560" width="754" height="86" rx="32" fill="#b96a45"/>
  </g>
  <g fill="#faf8f3">
    <rect x="285" y="690" width="48" height="220" rx="24" transform="rotate(-4 309 800)"/>
    <rect x="420" y="690" width="48" height="220" rx="24" transform="rotate(-2 444 800)"/>
    <rect x="556" y="690" width="48" height="220" rx="24"/>
    <rect x="692" y="690" width="48" height="220" rx="24" transform="rotate(2 716 800)"/>
  </g>
  <g transform="rotate(-31 350 565)">
    <rect x="320" y="335" width="62" height="350" rx="31" fill="#a55a37"/>
    <rect x="330" y="335" width="42" height="350" rx="21" fill="#b96a45"/>
  </g>
  <circle cx="358" cy="603" r="28" fill="#faf8f3"/>
  <circle cx="358" cy="603" r="16" fill="#eed7c5"/>
</g>
</svg>
